<svg width="400" height="66" viewBox="0 0 400 66" fill="none" xmlns="http://www.w3.org/2000/svg">
<path d="M29.855 12.8417V4.63458H3.9613V61.022H29.855V52.8149C24.5507 52.8149 19.4635 50.7091 15.7129 46.9609C11.9622 43.2127 9.85502 38.1291 9.85502 32.8283C9.85502 27.5275 11.9622 22.4438 15.7129 18.6956C19.4635 14.9474 24.5507 12.8417 29.855 12.8417Z" fill="white"/>
<path d="M29.8551 12.8416V52.8149C35.1595 52.8149 40.2466 50.7091 43.9973 46.9608C47.7481 43.2126 49.8551 38.1291 49.8551 32.8283C49.8551 27.5275 47.7481 22.4437 43.9973 18.6956C40.2466 14.9474 35.1595 12.8416 29.8551 12.8416Z" fill="white"/>
<path d="M82.6193 28.5645V28.4949C82.6193 27.2436 82.399 26.1081 81.9584 25.0885C81.541 24.0458 80.9265 23.1536 80.115 22.4121C79.3265 21.6705 78.3526 21.1028 77.1932 20.7089C76.057 20.2917 74.7584 20.0832 73.2976 20.0832H63.3497V44.4147H68.7063V37.1153H72.7758C74.1439 37.1153 75.4193 36.9415 76.6019 36.5939C77.8077 36.2231 78.8512 35.6785 79.7323 34.9602C80.6367 34.2418 81.3439 33.3497 81.8541 32.2837C82.3642 31.2178 82.6193 29.978 82.6193 28.5645ZM77.1932 28.6687C77.1932 29.7115 76.8222 30.5921 76.0802 31.3105C75.3381 32.0056 74.2947 32.3532 72.9497 32.3532H68.7063V24.9147H72.8454C74.1903 24.9147 75.2454 25.2276 76.0106 25.8532C76.799 26.4789 77.1932 27.3942 77.1932 28.5992V28.6687Z" fill="white"/>
<path d="M103.418 35.6206V35.5511C103.418 34.2302 103.233 32.9673 102.862 31.7623C102.514 30.5342 101.957 29.4566 101.192 28.5297C100.45 27.5796 99.511 26.8265 98.3747 26.2704C97.2385 25.7142 95.8936 25.4361 94.34 25.4361C92.9718 25.4361 91.7197 25.691 90.5834 26.2008C89.4704 26.7106 88.5081 27.4058 87.6965 28.2864C86.8849 29.167 86.2472 30.1982 85.7834 31.38C85.3428 32.5618 85.1226 33.8131 85.1226 35.134V35.2035C85.1226 36.6402 85.366 37.9495 85.853 39.1313C86.3399 40.29 87.0124 41.298 87.8704 42.1554C88.7515 43.0128 89.7834 43.6732 90.966 44.1367C92.1718 44.6001 93.4704 44.8318 94.8617 44.8318C96.5544 44.8318 98.0269 44.5306 99.2791 43.9281C100.531 43.3024 101.598 42.445 102.479 41.3559L99.453 38.6794C98.711 39.3515 97.9921 39.8381 97.2965 40.1393C96.6008 40.4406 95.8124 40.5912 94.9313 40.5912C93.7486 40.5912 92.7515 40.29 91.94 39.6875C91.1515 39.0618 90.6298 38.1465 90.3747 36.9415H103.349C103.372 36.6866 103.383 36.4664 103.383 36.281C103.407 36.0957 103.418 35.8755 103.418 35.6206ZM98.2704 33.6393H90.3052C90.5139 32.4343 90.9544 31.4727 91.6269 30.7543C92.3226 30.0359 93.2269 29.6768 94.34 29.6768C95.453 29.6768 96.3457 30.0475 97.0182 30.7891C97.6907 31.5074 98.1081 32.4575 98.2704 33.6393Z" fill="white"/>
<path d="M118.593 30.9629V25.4361C117.016 25.3666 115.764 25.7142 114.837 26.4789C113.909 27.2436 113.179 28.2632 112.645 29.5377V25.7837H107.358V44.4147H112.645V37.5324C112.645 35.2846 113.144 33.6277 114.141 32.5618C115.161 31.4958 116.553 30.9629 118.315 30.9629H118.593Z" fill="white"/>
<path d="M135.566 38.749V38.6794C135.566 37.822 135.392 37.0921 135.044 36.4896C134.696 35.8871 134.256 35.3773 133.723 34.9602C133.189 34.5431 132.586 34.1955 131.914 33.9174C131.241 33.6162 130.581 33.3613 129.931 33.1527C129.421 32.9905 128.934 32.8283 128.47 32.6661C128.03 32.5039 127.636 32.3417 127.288 32.1794C126.94 31.9941 126.662 31.8087 126.453 31.6233C126.244 31.4147 126.14 31.183 126.14 30.9281V30.8586C126.14 30.4878 126.302 30.1866 126.627 29.9548C126.952 29.6999 127.438 29.5725 128.088 29.5725C128.76 29.5725 129.537 29.7347 130.418 30.0591C131.299 30.3604 132.204 30.7775 133.131 31.3105L135.149 27.6607C134.128 26.9887 133.004 26.4673 131.775 26.0966C130.569 25.7026 129.375 25.5056 128.192 25.5056C127.241 25.5056 126.349 25.6331 125.514 25.888C124.702 26.1429 123.983 26.5253 123.357 27.0351C122.754 27.5449 122.267 28.1705 121.896 28.9121C121.549 29.6304 121.375 30.4646 121.375 31.4147V31.4843C121.375 32.388 121.537 33.1527 121.862 33.7784C122.21 34.404 122.65 34.937 123.183 35.3773C123.717 35.7944 124.308 36.142 124.957 36.4201C125.63 36.675 126.291 36.8951 126.94 37.0805C127.45 37.2427 127.937 37.3933 128.401 37.5324C128.865 37.6714 129.27 37.822 129.618 37.9843C129.989 38.1233 130.279 38.2971 130.488 38.5056C130.696 38.7142 130.801 38.9575 130.801 39.2356V39.3051C130.801 39.7222 130.615 40.0582 130.244 40.3131C129.896 40.568 129.34 40.6955 128.575 40.6955C127.694 40.6955 126.743 40.5101 125.723 40.1393C124.725 39.7686 123.717 39.2124 122.696 38.4709L120.436 41.9468C121.688 42.9201 122.998 43.6384 124.366 44.1019C125.757 44.5422 127.114 44.7623 128.436 44.7623C129.433 44.7623 130.36 44.6465 131.218 44.4147C132.099 44.1598 132.865 43.7891 133.514 43.3024C134.163 42.8158 134.662 42.2017 135.01 41.4602C135.381 40.6955 135.566 39.7917 135.566 38.749Z" fill="white"/>
<path d="M158.625 35.134V35.0645C158.625 33.7204 158.37 32.4691 157.86 31.3105C157.35 30.1286 156.643 29.109 155.738 28.2516C154.857 27.3711 153.802 26.6875 152.573 26.2008C151.344 25.691 150.011 25.4361 148.573 25.4361C147.112 25.4361 145.767 25.691 144.538 26.2008C143.309 26.7106 142.243 27.4058 141.338 28.2864C140.434 29.167 139.727 30.1982 139.217 31.38C138.706 32.5386 138.451 33.79 138.451 35.134V35.2035C138.451 36.5475 138.706 37.8105 139.217 38.9923C139.727 40.1509 140.422 41.1705 141.304 42.0511C142.208 42.9085 143.275 43.5921 144.504 44.1019C145.733 44.5885 147.066 44.8318 148.504 44.8318C149.964 44.8318 151.309 44.5769 152.538 44.0671C153.767 43.5573 154.834 42.8621 155.738 41.9816C156.643 41.101 157.35 40.0814 157.86 38.9228C158.37 37.7409 158.625 36.478 158.625 35.134ZM153.408 35.2035C153.408 35.8987 153.292 36.5591 153.06 37.1848C152.851 37.7873 152.538 38.3203 152.121 38.7837C151.704 39.2472 151.193 39.6179 150.59 39.896C150.011 40.1509 149.338 40.2784 148.573 40.2784C147.831 40.2784 147.159 40.1393 146.556 39.8613C145.976 39.5832 145.466 39.2124 145.025 38.749C144.585 38.2623 144.248 37.7178 144.017 37.1153C143.785 36.4896 143.669 35.8292 143.669 35.134V35.0645C143.669 34.3693 143.773 33.7204 143.982 33.1179C144.214 32.4923 144.538 31.9477 144.956 31.4843C145.373 31.0208 145.872 30.6616 146.451 30.4067C147.054 30.1286 147.738 29.9896 148.504 29.9896C149.222 29.9896 149.883 30.1286 150.486 30.4067C151.089 30.6848 151.611 31.0671 152.051 31.5538C152.492 32.0172 152.828 32.5618 153.06 33.1875C153.292 33.79 153.408 34.4388 153.408 35.134V35.2035Z" fill="white"/>
<path d="M179.532 44.4147V32.3532C179.532 30.1982 178.975 28.5065 177.862 27.2784C176.772 26.0502 175.219 25.4361 173.201 25.4361C172.529 25.4361 171.926 25.5172 171.393 25.6794C170.859 25.8417 170.372 26.0618 169.932 26.3399C169.491 26.6179 169.085 26.9424 168.714 27.3131C168.367 27.6607 168.042 28.0315 167.74 28.4254V25.7837H162.454V44.4147H167.74V34.0217C167.74 32.7704 168.03 31.8318 168.61 31.2062C169.213 30.5573 170.025 30.2329 171.045 30.2329C172.065 30.2329 172.854 30.5573 173.41 31.2062C173.967 31.8318 174.245 32.7704 174.245 34.0217V44.4147H179.532Z" fill="white"/>
<path d="M200.16 44.4147V33.6046C200.16 31.0787 199.499 29.109 198.177 27.6955C196.855 26.2819 194.745 25.5752 191.846 25.5752C190.27 25.5752 188.925 25.7142 187.812 25.9923C186.699 26.2704 185.632 26.6295 184.612 27.0698L185.933 31.1019C186.791 30.7775 187.603 30.5342 188.368 30.372C189.157 30.1866 190.061 30.0939 191.081 30.0939C192.403 30.0939 193.4 30.3835 194.073 30.9629C194.745 31.5422 195.081 32.388 195.081 33.5003V33.8131C194.409 33.5814 193.713 33.396 192.994 33.257C192.299 33.1179 191.475 33.0484 190.525 33.0484C189.412 33.0484 188.391 33.1759 187.464 33.4308C186.56 33.6625 185.771 34.0217 185.099 34.5083C184.449 34.9949 183.939 35.609 183.568 36.3506C183.197 37.0921 183.012 37.9727 183.012 38.9923V39.0618C183.012 39.9887 183.174 40.8113 183.499 41.5297C183.846 42.2249 184.31 42.8158 184.89 43.3024C185.47 43.7891 186.142 44.1598 186.907 44.4147C187.696 44.6465 188.531 44.7623 189.412 44.7623C190.71 44.7623 191.812 44.5538 192.716 44.1367C193.62 43.6964 194.397 43.1171 195.046 42.3987V44.4147H200.16ZM195.151 37.8452C195.151 38.8185 194.768 39.6064 194.003 40.2089C193.261 40.8113 192.264 41.1126 191.012 41.1126C190.154 41.1126 189.458 40.9156 188.925 40.5217C188.391 40.1277 188.125 39.5716 188.125 38.8532V38.7837C188.125 37.9495 188.449 37.3122 189.099 36.872C189.748 36.4317 190.641 36.2115 191.777 36.2115C192.426 36.2115 193.029 36.281 193.586 36.4201C194.165 36.5359 194.687 36.6982 195.151 36.9067V37.8452Z" fill="white"/>
<path d="M210.239 44.4147V19.0404H204.952V44.4147H210.239Z" fill="white"/>
<path d="M261.25 20.0832H255.65L250.607 36.5591L245.146 20.0137H240.555L235.094 36.5591L230.05 20.0832H224.311L232.624 44.5885H237.285L242.781 28.6687L248.276 44.5885H252.937L261.25 20.0832Z" fill="white"/>
<path d="M280.696 44.4147V33.6046C280.696 31.0787 280.035 29.109 278.714 27.6955C277.392 26.2819 275.282 25.5752 272.383 25.5752C270.806 25.5752 269.461 25.7142 268.348 25.9923C267.235 26.2704 266.169 26.6295 265.148 27.0698L266.47 31.1019C267.328 30.7775 268.14 30.5342 268.905 30.372C269.693 30.1866 270.598 30.0939 271.618 30.0939C272.94 30.0939 273.937 30.3835 274.609 30.9629C275.282 31.5422 275.618 32.388 275.618 33.5003V33.8131C274.945 33.5814 274.25 33.396 273.531 33.257C272.835 33.1179 272.012 33.0484 271.061 33.0484C269.948 33.0484 268.928 33.1759 268.001 33.4308C267.096 33.6625 266.308 34.0217 265.635 34.5083C264.986 34.9949 264.476 35.609 264.105 36.3506C263.734 37.0921 263.548 37.9727 263.548 38.9923V39.0618C263.548 39.9887 263.711 40.8113 264.035 41.5297C264.383 42.2249 264.847 42.8158 265.427 43.3024C266.006 43.7891 266.679 44.1598 267.444 44.4147C268.232 44.6465 269.067 44.7623 269.948 44.7623C271.247 44.7623 272.348 44.5538 273.253 44.1367C274.157 43.6964 274.934 43.1171 275.583 42.3987V44.4147H280.696ZM275.688 37.8452C275.688 38.8185 275.305 39.6064 274.54 40.2089C273.798 40.8113 272.801 41.1126 271.548 41.1126C270.69 41.1126 269.995 40.9156 269.461 40.5217C268.928 40.1277 268.661 39.5716 268.661 38.8532V38.7837C268.661 37.9495 268.986 37.3122 269.635 36.872C270.285 36.4317 271.177 36.2115 272.314 36.2115C272.963 36.2115 273.566 36.281 274.122 36.4201C274.702 36.5359 275.224 36.6982 275.688 36.9067V37.8452Z" fill="white"/>
<path d="M295.715 43.65V39.4094C294.904 39.8497 294.034 40.0698 293.107 40.0698C291.97 40.0698 291.402 39.4673 291.402 38.2623V30.3024H295.785V25.7837H291.402V21.0217H286.115V25.7837H283.889V30.3024H286.115V39.1313C286.115 40.2204 286.243 41.1242 286.498 41.8425C286.776 42.5377 287.147 43.1055 287.611 43.5457C288.098 43.986 288.666 44.2873 289.315 44.4495C289.988 44.6349 290.73 44.7276 291.541 44.7276C292.422 44.7276 293.199 44.6233 293.872 44.4147C294.544 44.2293 295.159 43.9744 295.715 43.65Z" fill="white"/>
<path d="M316.099 41.4254L313.004 38.2971C312.354 38.8996 311.693 39.3862 311.021 39.757C310.372 40.1046 309.606 40.2784 308.725 40.2784C308.006 40.2784 307.357 40.1509 306.777 39.896C306.198 39.6179 305.699 39.2472 305.282 38.7837C304.864 38.3203 304.54 37.7757 304.308 37.15C304.099 36.5244 303.995 35.8523 303.995 35.134V35.0645C303.995 34.3693 304.099 33.7204 304.308 33.1179C304.54 32.4923 304.853 31.9477 305.247 31.4843C305.664 31.0208 306.14 30.6616 306.673 30.4067C307.23 30.1286 307.844 29.9896 308.517 29.9896C309.467 29.9896 310.256 30.175 310.882 30.5458C311.531 30.9165 312.157 31.4147 312.76 32.0404L315.995 28.5645C315.114 27.5912 314.093 26.8265 312.934 26.2704C311.775 25.7142 310.314 25.4361 308.551 25.4361C307.114 25.4361 305.792 25.691 304.586 26.2008C303.404 26.7106 302.383 27.4058 301.525 28.2864C300.667 29.167 299.995 30.1982 299.508 31.38C299.021 32.5618 298.777 33.8131 298.777 35.134V35.2035C298.777 36.5244 299.021 37.7757 299.508 38.9575C299.995 40.1162 300.667 41.1358 301.525 42.0163C302.383 42.8737 303.404 43.5573 304.586 44.0671C305.792 44.5769 307.09 44.8318 308.482 44.8318C310.337 44.8318 311.844 44.519 313.004 43.8933C314.163 43.2445 315.195 42.4219 316.099 41.4254Z" fill="white"/>
<path d="M336.631 44.4147V32.3532C336.631 30.1982 336.074 28.5065 334.961 27.2784C333.872 26.0502 332.318 25.4361 330.301 25.4361C329.628 25.4361 329.025 25.5172 328.492 25.6794C327.959 25.8417 327.472 26.0618 327.031 26.3399C326.59 26.6179 326.185 26.9424 325.814 27.3131C325.466 27.6607 325.141 28.0315 324.84 28.4254V19.0404H319.553V44.4147H324.84V34.0217C324.84 32.7704 325.13 31.8318 325.709 31.2062C326.312 30.5573 327.124 30.2329 328.144 30.2329C329.164 30.2329 329.953 30.5573 330.509 31.2062C331.066 31.8318 331.344 32.7704 331.344 34.0217V44.4147H336.631Z" fill="white"/>
<path d="M346.754 44.4147V19.0404H341.467V44.4147H346.754Z" fill="white"/>
<path d="M357.389 23.7329V19.0404H351.824V23.7329H357.389ZM357.25 44.4147V25.7837H351.963V44.4147H357.25Z" fill="white"/>
<path d="M375.885 38.749V38.6794C375.885 37.822 375.711 37.0921 375.364 36.4896C375.016 35.8871 374.575 35.3773 374.042 34.9602C373.509 34.5431 372.906 34.1955 372.233 33.9174C371.561 33.6162 370.9 33.3613 370.251 33.1527C369.74 32.9905 369.253 32.8283 368.79 32.6661C368.349 32.5039 367.955 32.3417 367.607 32.1794C367.259 31.9941 366.981 31.8087 366.772 31.6233C366.564 31.4147 366.459 31.183 366.459 30.9281V30.8586C366.459 30.4878 366.622 30.1866 366.946 29.9548C367.271 29.6999 367.758 29.5725 368.407 29.5725C369.08 29.5725 369.856 29.7347 370.738 30.0591C371.619 30.3604 372.523 30.7775 373.451 31.3105L375.468 27.6607C374.448 26.9887 373.323 26.4673 372.094 26.0966C370.888 25.7026 369.694 25.5056 368.511 25.5056C367.561 25.5056 366.668 25.6331 365.833 25.888C365.022 26.1429 364.303 26.5253 363.677 27.0351C363.074 27.5449 362.587 28.1705 362.216 28.9121C361.868 29.6304 361.694 30.4646 361.694 31.4147V31.4843C361.694 32.388 361.856 33.1527 362.181 33.7784C362.529 34.404 362.969 34.937 363.503 35.3773C364.036 35.7944 364.627 36.142 365.277 36.4201C365.949 36.675 366.61 36.8951 367.259 37.0805C367.769 37.2427 368.256 37.3933 368.72 37.5324C369.184 37.6714 369.59 37.822 369.938 37.9843C370.309 38.1233 370.598 38.2971 370.807 38.5056C371.016 38.7142 371.12 38.9575 371.12 39.2356V39.3051C371.12 39.7222 370.935 40.0582 370.564 40.3131C370.216 40.568 369.659 40.6955 368.894 40.6955C368.013 40.6955 367.062 40.5101 366.042 40.1393C365.045 39.7686 364.036 39.2124 363.016 38.4709L360.755 41.9468C362.007 42.9201 363.317 43.6384 364.685 44.1019C366.077 44.5422 367.433 44.7623 368.755 44.7623C369.752 44.7623 370.68 44.6465 371.538 44.4147C372.419 44.1598 373.184 43.7891 373.833 43.3024C374.482 42.8158 374.981 42.2017 375.329 41.4602C375.7 40.6955 375.885 39.7917 375.885 38.749Z" fill="white"/>
<path d="M390.145 43.65V39.4094C389.333 39.8497 388.463 40.0698 387.536 40.0698C386.4 40.0698 385.832 39.4673 385.832 38.2623V30.3024H390.214V25.7837H385.832V21.0217H380.545V25.7837H378.319V30.3024H380.545V39.1313C380.545 40.2204 380.672 41.1242 380.927 41.8425C381.205 42.5377 381.576 43.1055 382.04 43.5457C382.527 43.986 383.095 44.2873 383.745 44.4495C384.417 44.6349 385.159 44.7276 385.971 44.7276C386.852 44.7276 387.629 44.6233 388.301 44.4147C388.974 44.2293 389.588 43.9744 390.145 43.65Z" fill="white"/>
</svg>
