<svg width="84" height="84" viewBox="0 0 84 84" fill="none" xmlns="http://www.w3.org/2000/svg">
<path d="M63 14L69.37 26.74C69.65 27.3 69.23 28 68.6 28H61.67C60.34 28 59.115 27.265 58.555 26.075L52.5 14H45.5L51.87 26.74C52.15 27.3 51.73 28 51.1 28H44.17C42.84 28 41.615 27.265 41.055 26.075L35 14H28L34.37 26.74C34.65 27.3 34.23 28 33.6 28H26.67C25.34 28 24.115 27.265 23.52 26.075L17.5 14H14C10.15 14 7 17.15 7 21V63C7 66.85 10.15 70 14 70H70C73.85 70 77 66.85 77 63V17.5C77 15.575 75.425 14 73.5 14H63Z" fill="#2D107C"/>
</svg>
