<svg width="36" height="36" viewBox="0 0 36 36" fill="none" xmlns="http://www.w3.org/2000/svg">
<path d="M9 28.5C9 30.15 10.35 31.5 12 31.5H24C25.65 31.5 27 30.15 27 28.5V13.5C27 11.85 25.65 10.5 24 10.5H12C10.35 10.5 9 11.85 9 13.5V28.5ZM13.5 13.5H22.5C23.325 13.5 24 14.175 24 15V27C24 27.825 23.325 28.5 22.5 28.5H13.5C12.675 28.5 12 27.825 12 27V15C12 14.175 12.675 13.5 13.5 13.5ZM23.25 6L22.185 4.935C21.915 4.665 21.525 4.5 21.135 4.5H14.865C14.475 4.5 14.085 4.665 13.815 4.935L12.75 6H9C8.175 6 7.5 6.675 7.5 7.5C7.5 8.325 8.175 9 9 9H27C27.825 9 28.5 8.325 28.5 7.5C28.5 6.675 27.825 6 27 6H23.25Z" fill="#441CAD"/>
</svg>
